<svg xmlns="http://www.w3.org/2000/svg" viewBox="0 0 512 512">
  <defs>
    <linearGradient id="bg" x1="0%" y1="0%" x2="100%" y2="100%">
      <stop offset="0%" style="stop-color:#0f172a"/>
      <stop offset="100%" style="stop-color:#1e293b"/>
    </linearGradient>
  </defs>

  <!-- Background -->
  <rect width="512" height="512" rx="96" fill="white"/>

  <!-- 10 donut segments with actual part colors -->
  <path d="M 258.6 56.0 A 200 200 0 0 1 371.4 92.7 L 328.1 153.9 A 125 125 0 0 0 257.6 131.0 Z" fill="#1e40af"/>
  <path d="M 375.7 95.7 A 200 200 0 0 1 445.4 191.7 L 374.4 215.8 A 125 125 0 0 0 330.8 155.8 Z" fill="#065f46"/>
  <path d="M 447.0 196.7 A 200 200 0 0 1 447.0 315.3 L 375.4 293.1 A 125 125 0 0 0 375.4 218.9 Z" fill="#16a34a"/>
  <path d="M 445.4 320.3 A 200 200 0 0 1 375.7 416.3 L 330.8 356.2 A 125 125 0 0 0 374.4 296.2 Z" fill="#dc2626"/>
  <path d="M 371.4 419.3 A 200 200 0 0 1 258.6 456.0 L 257.6 381.0 A 125 125 0 0 0 328.1 358.1 Z" fill="#7c3aed"/>
  <path d="M 253.4 456.0 A 200 200 0 0 1 140.6 419.3 L 183.9 358.1 A 125 125 0 0 0 254.4 381.0 Z" fill="#ea580c"/>
  <path d="M 136.3 416.3 A 200 200 0 0 1 66.6 320.3 L 137.6 296.2 A 125 125 0 0 0 181.2 356.2 Z" fill="#0891b2"/>
  <path d="M 65.0 315.3 A 200 200 0 0 1 65.0 196.7 L 136.6 218.9 A 125 125 0 0 0 136.6 293.1 Z" fill="#4338ca"/>
  <path d="M 66.6 191.7 A 200 200 0 0 1 136.3 95.7 L 181.2 155.8 A 125 125 0 0 0 137.6 215.8 Z" fill="#be185d"/>
  <path d="M 140.6 92.7 A 200 200 0 0 1 253.4 56.0 L 254.4 131.0 A 125 125 0 0 0 183.9 153.9 Z" fill="#a16207"/>

  <!-- Inner circle -->
  <circle cx="256" cy="256" r="114" fill="white"/>

  <!-- P letter -->
  <text x="256" y="256" fill="#0f172a" font-family="Georgia, 'Times New Roman', serif" font-size="140" font-weight="bold" text-anchor="middle" dominant-baseline="central">P</text>
</svg>
